<svg width="1600" height="900" viewBox="0 0 1600 900" fill="none" xmlns="http://www.w3.org/2000/svg">
  <defs>
    <linearGradient id="bg" x1="0" y1="0" x2="0" y2="900">
      <stop stop-color="#0F172A"/>
      <stop offset="1" stop-color="#1E3A8A"/>
    </linearGradient>
  </defs>
  <rect width="1600" height="900" fill="url(#bg)"/>
  <text x="70" y="110" fill="#F1F5F9" font-size="68" font-family="Arial" font-weight="700">Spigot Cookie Auto Detector</text>
  <text x="70" y="165" fill="#BFDBFE" font-size="34" font-family="Arial">Front image with bot/extension screenshot previews</text>

  <rect x="70" y="230" width="700" height="580" rx="22" fill="#F8FAFC" stroke="#94A3B8" stroke-width="3"/>
  <rect x="92" y="250" width="656" height="46" rx="10" fill="#1E3A8A"/>
  <text x="116" y="281" fill="#EFF6FF" font-size="24" font-family="Arial">Screenshot 1 — Popup View</text>

  <rect x="100" y="330" width="640" height="42" rx="10" fill="#E2E8F0"/>
  <text x="120" y="358" fill="#334155" font-size="24" font-family="Arial">Domain: spigot.org</text>
  <rect x="100" y="386" width="640" height="42" rx="10" fill="#E2E8F0"/>
  <text x="120" y="414" fill="#334155" font-size="24" font-family="Arial">Cookies detected: 12</text>
  <rect x="100" y="442" width="640" height="42" rx="10" fill="#E2E8F0"/>
  <text x="120" y="470" fill="#334155" font-size="24" font-family="Arial">Captured: 2026-05-04T12:30:15Z</text>
  <rect x="100" y="498" width="640" height="42" rx="10" fill="#E2E8F0"/>
  <text x="120" y="526" fill="#334155" font-size="24" font-family="Arial">Buttons: Refresh / Copy JSON</text>
  <rect x="100" y="554" width="640" height="210" rx="10" fill="#CBD5E1"/>
  <text x="120" y="592" fill="#1E293B" font-size="22" font-family="Courier New">{ "domain": "spigot.org", "cookies": [ ... ] }</text>

  <rect x="830" y="230" width="700" height="580" rx="22" fill="#F8FAFC" stroke="#94A3B8" stroke-width="3"/>
  <rect x="852" y="250" width="656" height="46" rx="10" fill="#1E3A8A"/>
  <text x="876" y="281" fill="#EFF6FF" font-size="24" font-family="Arial">Screenshot 2 — Permissions &amp; Review</text>

  <rect x="860" y="330" width="640" height="42" rx="10" fill="#E2E8F0"/><text x="880" y="358" fill="#334155" font-size="24" font-family="Arial">cookies / tabs / storage</text>
  <rect x="860" y="386" width="640" height="42" rx="10" fill="#E2E8F0"/><text x="880" y="414" fill="#334155" font-size="24" font-family="Arial">Host: https://*.spigot.org/*</text>
  <rect x="860" y="442" width="640" height="42" rx="10" fill="#E2E8F0"/><text x="880" y="470" fill="#334155" font-size="24" font-family="Arial">Single-purpose disclosure</text>
  <rect x="860" y="498" width="640" height="42" rx="10" fill="#E2E8F0"/><text x="880" y="526" fill="#334155" font-size="24" font-family="Arial">Remote code: No</text>
  <rect x="860" y="554" width="640" height="42" rx="10" fill="#E2E8F0"/><text x="880" y="582" fill="#334155" font-size="24" font-family="Arial">Privacy policy URL required</text>

  <rect x="90" y="835" width="280" height="42" rx="14" fill="#1E3A8A"/><text x="120" y="863" fill="#E0E7FF" font-size="22" font-family="Arial">Auto Snapshot</text>
  <rect x="420" y="835" width="280" height="42" rx="14" fill="#1E3A8A"/><text x="450" y="863" fill="#E0E7FF" font-size="22" font-family="Arial">Spigot-only Scope</text>
  <rect x="750" y="835" width="320" height="42" rx="14" fill="#1E3A8A"/><text x="780" y="863" fill="#E0E7FF" font-size="22" font-family="Arial">Local Storage Only</text>
</svg>
